<mxfile host="app.diagrams.net" agent="Mozilla/5.0 (Macintosh; Intel Mac OS X 10_15_7) AppleWebKit/537.36 (KHTML, like Gecko) Chrome/126.0.0.0 Whale/3.27.254.15 Safari/537.36" version="24.7.17">
  <diagram name="페이지-1" id="8g5Zn0wMJFjncriXSSx3">
    <mxGraphModel dx="524" dy="995" grid="1" gridSize="10" guides="1" tooltips="1" connect="1" arrows="1" fold="1" page="1" pageScale="1" pageWidth="1169" pageHeight="827" math="0" shadow="0">
      <root>
        <mxCell id="0" />
        <mxCell id="1" parent="0" />
        <mxCell id="Aqq_Bgm-5_LAsRGmrGGg-91" style="edgeStyle=orthogonalEdgeStyle;rounded=0;orthogonalLoop=1;jettySize=auto;html=1;entryX=0;entryY=0.5;entryDx=0;entryDy=0;" edge="1" parent="1" source="Aqq_Bgm-5_LAsRGmrGGg-92" target="Aqq_Bgm-5_LAsRGmrGGg-178">
          <mxGeometry relative="1" as="geometry" />
        </mxCell>
        <mxCell id="Aqq_Bgm-5_LAsRGmrGGg-92" value="&lt;div&gt;&lt;font&gt;input1-topic&lt;/font&gt;&lt;/div&gt;" style="rounded=0;whiteSpace=wrap;html=1;strokeColor=#000000;fontColor=#000000;" vertex="1" parent="1">
          <mxGeometry x="90" y="145" width="120" height="40" as="geometry" />
        </mxCell>
        <mxCell id="Aqq_Bgm-5_LAsRGmrGGg-93" style="edgeStyle=orthogonalEdgeStyle;rounded=0;orthogonalLoop=1;jettySize=auto;html=1;entryX=0;entryY=0.5;entryDx=0;entryDy=0;" edge="1" parent="1" source="Aqq_Bgm-5_LAsRGmrGGg-94" target="Aqq_Bgm-5_LAsRGmrGGg-180">
          <mxGeometry relative="1" as="geometry" />
        </mxCell>
        <mxCell id="Aqq_Bgm-5_LAsRGmrGGg-94" value="&lt;font&gt;groupBy&lt;/font&gt;" style="ellipse;whiteSpace=wrap;html=1;strokeColor=#000000;fontColor=#000000;" vertex="1" parent="1">
          <mxGeometry x="330" y="190" width="80" height="50" as="geometry" />
        </mxCell>
        <mxCell id="Aqq_Bgm-5_LAsRGmrGGg-95" style="edgeStyle=orthogonalEdgeStyle;rounded=0;orthogonalLoop=1;jettySize=auto;html=1;entryX=0;entryY=0.5;entryDx=0;entryDy=0;" edge="1" parent="1" source="Aqq_Bgm-5_LAsRGmrGGg-96" target="Aqq_Bgm-5_LAsRGmrGGg-98">
          <mxGeometry relative="1" as="geometry" />
        </mxCell>
        <mxCell id="Aqq_Bgm-5_LAsRGmrGGg-96" value="&lt;font&gt;aggregate&lt;/font&gt;" style="ellipse;whiteSpace=wrap;html=1;strokeColor=#000000;fontColor=#000000;" vertex="1" parent="1">
          <mxGeometry x="650" y="165" width="80" height="50" as="geometry" />
        </mxCell>
        <mxCell id="Aqq_Bgm-5_LAsRGmrGGg-97" value="" style="shape=cylinder3;whiteSpace=wrap;html=1;boundedLbl=1;backgroundOutline=1;size=15;" vertex="1" parent="1">
          <mxGeometry x="700" y="200" width="40" height="50" as="geometry" />
        </mxCell>
        <mxCell id="Aqq_Bgm-5_LAsRGmrGGg-98" value="&lt;div&gt;&lt;font&gt;output-topic&lt;/font&gt;&lt;/div&gt;" style="rounded=0;whiteSpace=wrap;html=1;strokeColor=#000000;fontColor=#000000;" vertex="1" parent="1">
          <mxGeometry x="850" y="170" width="120" height="40" as="geometry" />
        </mxCell>
        <mxCell id="Aqq_Bgm-5_LAsRGmrGGg-99" style="edgeStyle=orthogonalEdgeStyle;rounded=0;orthogonalLoop=1;jettySize=auto;html=1;entryX=0;entryY=0.5;entryDx=0;entryDy=0;" edge="1" parent="1" source="Aqq_Bgm-5_LAsRGmrGGg-100" target="Aqq_Bgm-5_LAsRGmrGGg-102">
          <mxGeometry relative="1" as="geometry" />
        </mxCell>
        <mxCell id="Aqq_Bgm-5_LAsRGmrGGg-100" value="voter1: a&lt;div&gt;(t=1)&lt;/div&gt;" style="text;html=1;align=center;verticalAlign=middle;whiteSpace=wrap;rounded=0;fontColor=#000000;" vertex="1" parent="1">
          <mxGeometry x="90" y="250" width="80" height="30" as="geometry" />
        </mxCell>
        <mxCell id="Aqq_Bgm-5_LAsRGmrGGg-101" style="edgeStyle=orthogonalEdgeStyle;rounded=0;orthogonalLoop=1;jettySize=auto;html=1;" edge="1" parent="1" source="Aqq_Bgm-5_LAsRGmrGGg-102" target="Aqq_Bgm-5_LAsRGmrGGg-104">
          <mxGeometry relative="1" as="geometry" />
        </mxCell>
        <mxCell id="Aqq_Bgm-5_LAsRGmrGGg-102" value="a" style="text;html=1;align=center;verticalAlign=middle;whiteSpace=wrap;rounded=0;fontColor=#000000;" vertex="1" parent="1">
          <mxGeometry x="330" y="250" width="80" height="30" as="geometry" />
        </mxCell>
        <mxCell id="Aqq_Bgm-5_LAsRGmrGGg-103" style="edgeStyle=orthogonalEdgeStyle;rounded=0;orthogonalLoop=1;jettySize=auto;html=1;entryX=0;entryY=0.5;entryDx=0;entryDy=0;" edge="1" parent="1" source="Aqq_Bgm-5_LAsRGmrGGg-104" target="Aqq_Bgm-5_LAsRGmrGGg-105">
          <mxGeometry relative="1" as="geometry" />
        </mxCell>
        <mxCell id="Aqq_Bgm-5_LAsRGmrGGg-104" value="a : 1" style="text;html=1;align=center;verticalAlign=middle;whiteSpace=wrap;rounded=0;fontColor=#000000;strokeColor=default;" vertex="1" parent="1">
          <mxGeometry x="570" y="250" width="80" height="30" as="geometry" />
        </mxCell>
        <mxCell id="Aqq_Bgm-5_LAsRGmrGGg-105" value="a : 1" style="text;html=1;align=center;verticalAlign=middle;whiteSpace=wrap;rounded=0;fontColor=#000000;" vertex="1" parent="1">
          <mxGeometry x="850" y="250" width="80" height="30" as="geometry" />
        </mxCell>
        <mxCell id="Aqq_Bgm-5_LAsRGmrGGg-106" style="edgeStyle=orthogonalEdgeStyle;rounded=0;orthogonalLoop=1;jettySize=auto;html=1;entryX=0;entryY=0.5;entryDx=0;entryDy=0;" edge="1" parent="1" source="Aqq_Bgm-5_LAsRGmrGGg-107" target="Aqq_Bgm-5_LAsRGmrGGg-109">
          <mxGeometry relative="1" as="geometry" />
        </mxCell>
        <mxCell id="Aqq_Bgm-5_LAsRGmrGGg-107" value="voter2: b&lt;div&gt;(t=2)&lt;/div&gt;" style="text;html=1;align=center;verticalAlign=middle;whiteSpace=wrap;rounded=0;fontColor=#000000;" vertex="1" parent="1">
          <mxGeometry x="90" y="290" width="80" height="30" as="geometry" />
        </mxCell>
        <mxCell id="Aqq_Bgm-5_LAsRGmrGGg-108" style="edgeStyle=orthogonalEdgeStyle;rounded=0;orthogonalLoop=1;jettySize=auto;html=1;" edge="1" parent="1" source="Aqq_Bgm-5_LAsRGmrGGg-109" target="Aqq_Bgm-5_LAsRGmrGGg-111">
          <mxGeometry relative="1" as="geometry" />
        </mxCell>
        <mxCell id="Aqq_Bgm-5_LAsRGmrGGg-109" value="b" style="text;html=1;align=center;verticalAlign=middle;whiteSpace=wrap;rounded=0;fontColor=#000000;" vertex="1" parent="1">
          <mxGeometry x="330" y="290" width="80" height="30" as="geometry" />
        </mxCell>
        <mxCell id="Aqq_Bgm-5_LAsRGmrGGg-110" style="edgeStyle=orthogonalEdgeStyle;rounded=0;orthogonalLoop=1;jettySize=auto;html=1;entryX=0;entryY=0.5;entryDx=0;entryDy=0;" edge="1" parent="1" source="Aqq_Bgm-5_LAsRGmrGGg-111" target="Aqq_Bgm-5_LAsRGmrGGg-112">
          <mxGeometry relative="1" as="geometry" />
        </mxCell>
        <mxCell id="Aqq_Bgm-5_LAsRGmrGGg-111" value="a : 1&lt;div&gt;b : 1&lt;/div&gt;" style="text;html=1;align=center;verticalAlign=middle;whiteSpace=wrap;rounded=0;fontColor=#000000;strokeColor=default;" vertex="1" parent="1">
          <mxGeometry x="570" y="290" width="80" height="30" as="geometry" />
        </mxCell>
        <mxCell id="Aqq_Bgm-5_LAsRGmrGGg-112" value="b : 1" style="text;html=1;align=center;verticalAlign=middle;whiteSpace=wrap;rounded=0;fontColor=#000000;" vertex="1" parent="1">
          <mxGeometry x="850" y="290" width="80" height="30" as="geometry" />
        </mxCell>
        <mxCell id="Aqq_Bgm-5_LAsRGmrGGg-113" style="edgeStyle=orthogonalEdgeStyle;rounded=0;orthogonalLoop=1;jettySize=auto;html=1;entryX=0;entryY=0.5;entryDx=0;entryDy=0;" edge="1" parent="1" source="Aqq_Bgm-5_LAsRGmrGGg-114" target="Aqq_Bgm-5_LAsRGmrGGg-116">
          <mxGeometry relative="1" as="geometry" />
        </mxCell>
        <mxCell id="Aqq_Bgm-5_LAsRGmrGGg-114" value="voter3: c&lt;div&gt;(t=3)&lt;/div&gt;" style="text;html=1;align=center;verticalAlign=middle;whiteSpace=wrap;rounded=0;fontColor=#000000;" vertex="1" parent="1">
          <mxGeometry x="90" y="335" width="80" height="30" as="geometry" />
        </mxCell>
        <mxCell id="Aqq_Bgm-5_LAsRGmrGGg-115" style="edgeStyle=orthogonalEdgeStyle;rounded=0;orthogonalLoop=1;jettySize=auto;html=1;" edge="1" parent="1" source="Aqq_Bgm-5_LAsRGmrGGg-116" target="Aqq_Bgm-5_LAsRGmrGGg-118">
          <mxGeometry relative="1" as="geometry" />
        </mxCell>
        <mxCell id="Aqq_Bgm-5_LAsRGmrGGg-116" value="c" style="text;html=1;align=center;verticalAlign=middle;whiteSpace=wrap;rounded=0;fontColor=#000000;" vertex="1" parent="1">
          <mxGeometry x="330" y="335" width="80" height="30" as="geometry" />
        </mxCell>
        <mxCell id="Aqq_Bgm-5_LAsRGmrGGg-117" style="edgeStyle=orthogonalEdgeStyle;rounded=0;orthogonalLoop=1;jettySize=auto;html=1;entryX=0;entryY=0.5;entryDx=0;entryDy=0;" edge="1" parent="1" source="Aqq_Bgm-5_LAsRGmrGGg-118" target="Aqq_Bgm-5_LAsRGmrGGg-119">
          <mxGeometry relative="1" as="geometry" />
        </mxCell>
        <mxCell id="Aqq_Bgm-5_LAsRGmrGGg-118" value="a : 1&lt;div&gt;b : 1&lt;/div&gt;&lt;div&gt;c : 1&lt;/div&gt;" style="text;html=1;align=center;verticalAlign=middle;whiteSpace=wrap;rounded=0;fontColor=#000000;strokeColor=default;" vertex="1" parent="1">
          <mxGeometry x="570" y="330" width="80" height="40" as="geometry" />
        </mxCell>
        <mxCell id="Aqq_Bgm-5_LAsRGmrGGg-119" value="c : 1" style="text;html=1;align=center;verticalAlign=middle;whiteSpace=wrap;rounded=0;fontColor=#000000;" vertex="1" parent="1">
          <mxGeometry x="850" y="335" width="80" height="30" as="geometry" />
        </mxCell>
        <mxCell id="Aqq_Bgm-5_LAsRGmrGGg-120" style="edgeStyle=orthogonalEdgeStyle;rounded=0;orthogonalLoop=1;jettySize=auto;html=1;entryX=0;entryY=0.5;entryDx=0;entryDy=0;" edge="1" parent="1" source="Aqq_Bgm-5_LAsRGmrGGg-121" target="Aqq_Bgm-5_LAsRGmrGGg-123">
          <mxGeometry relative="1" as="geometry" />
        </mxCell>
        <mxCell id="Aqq_Bgm-5_LAsRGmrGGg-121" value="voter4: a&lt;div&gt;(t=4)&lt;/div&gt;" style="text;html=1;align=center;verticalAlign=middle;whiteSpace=wrap;rounded=0;fontColor=#000000;" vertex="1" parent="1">
          <mxGeometry x="90" y="390" width="80" height="30" as="geometry" />
        </mxCell>
        <mxCell id="Aqq_Bgm-5_LAsRGmrGGg-122" style="edgeStyle=orthogonalEdgeStyle;rounded=0;orthogonalLoop=1;jettySize=auto;html=1;" edge="1" parent="1" source="Aqq_Bgm-5_LAsRGmrGGg-123" target="Aqq_Bgm-5_LAsRGmrGGg-125">
          <mxGeometry relative="1" as="geometry" />
        </mxCell>
        <mxCell id="Aqq_Bgm-5_LAsRGmrGGg-123" value="a" style="text;html=1;align=center;verticalAlign=middle;whiteSpace=wrap;rounded=0;fontColor=#000000;" vertex="1" parent="1">
          <mxGeometry x="330" y="390" width="80" height="30" as="geometry" />
        </mxCell>
        <mxCell id="Aqq_Bgm-5_LAsRGmrGGg-124" style="edgeStyle=orthogonalEdgeStyle;rounded=0;orthogonalLoop=1;jettySize=auto;html=1;entryX=0;entryY=0.5;entryDx=0;entryDy=0;" edge="1" parent="1" source="Aqq_Bgm-5_LAsRGmrGGg-125" target="Aqq_Bgm-5_LAsRGmrGGg-126">
          <mxGeometry relative="1" as="geometry" />
        </mxCell>
        <mxCell id="Aqq_Bgm-5_LAsRGmrGGg-125" value="a : 2&lt;div&gt;b : 1&lt;/div&gt;&lt;div&gt;c : 1&lt;/div&gt;" style="text;html=1;align=center;verticalAlign=middle;whiteSpace=wrap;rounded=0;fontColor=#000000;strokeColor=default;" vertex="1" parent="1">
          <mxGeometry x="570" y="380" width="80" height="50" as="geometry" />
        </mxCell>
        <mxCell id="Aqq_Bgm-5_LAsRGmrGGg-126" value="a : 2" style="text;html=1;align=center;verticalAlign=middle;whiteSpace=wrap;rounded=0;fontColor=#000000;" vertex="1" parent="1">
          <mxGeometry x="850" y="390" width="80" height="30" as="geometry" />
        </mxCell>
        <mxCell id="Aqq_Bgm-5_LAsRGmrGGg-127" style="edgeStyle=orthogonalEdgeStyle;rounded=0;orthogonalLoop=1;jettySize=auto;html=1;entryX=0;entryY=0.5;entryDx=0;entryDy=0;" edge="1" parent="1" source="Aqq_Bgm-5_LAsRGmrGGg-128" target="Aqq_Bgm-5_LAsRGmrGGg-130">
          <mxGeometry relative="1" as="geometry" />
        </mxCell>
        <mxCell id="Aqq_Bgm-5_LAsRGmrGGg-128" value="voter5: a&lt;div&gt;(t=10)&lt;/div&gt;" style="text;html=1;align=center;verticalAlign=middle;whiteSpace=wrap;rounded=0;fontColor=#000000;" vertex="1" parent="1">
          <mxGeometry x="90" y="450" width="80" height="30" as="geometry" />
        </mxCell>
        <mxCell id="Aqq_Bgm-5_LAsRGmrGGg-129" style="edgeStyle=orthogonalEdgeStyle;rounded=0;orthogonalLoop=1;jettySize=auto;html=1;" edge="1" parent="1" source="Aqq_Bgm-5_LAsRGmrGGg-130" target="Aqq_Bgm-5_LAsRGmrGGg-132">
          <mxGeometry relative="1" as="geometry" />
        </mxCell>
        <mxCell id="Aqq_Bgm-5_LAsRGmrGGg-130" value="a" style="text;html=1;align=center;verticalAlign=middle;whiteSpace=wrap;rounded=0;fontColor=#000000;" vertex="1" parent="1">
          <mxGeometry x="330" y="450" width="80" height="30" as="geometry" />
        </mxCell>
        <mxCell id="Aqq_Bgm-5_LAsRGmrGGg-131" style="edgeStyle=orthogonalEdgeStyle;rounded=0;orthogonalLoop=1;jettySize=auto;html=1;entryX=0;entryY=0.5;entryDx=0;entryDy=0;" edge="1" parent="1" source="Aqq_Bgm-5_LAsRGmrGGg-132" target="Aqq_Bgm-5_LAsRGmrGGg-133">
          <mxGeometry relative="1" as="geometry" />
        </mxCell>
        <mxCell id="Aqq_Bgm-5_LAsRGmrGGg-132" value="a : 3&lt;div&gt;b : 1&lt;/div&gt;&lt;div&gt;c : 1&lt;/div&gt;" style="text;html=1;align=center;verticalAlign=middle;whiteSpace=wrap;rounded=0;fontColor=#000000;strokeColor=default;" vertex="1" parent="1">
          <mxGeometry x="570" y="440" width="80" height="50" as="geometry" />
        </mxCell>
        <mxCell id="Aqq_Bgm-5_LAsRGmrGGg-133" value="a : 3" style="text;html=1;align=center;verticalAlign=middle;whiteSpace=wrap;rounded=0;fontColor=#000000;" vertex="1" parent="1">
          <mxGeometry x="850" y="450" width="80" height="30" as="geometry" />
        </mxCell>
        <mxCell id="Aqq_Bgm-5_LAsRGmrGGg-134" style="edgeStyle=orthogonalEdgeStyle;rounded=0;orthogonalLoop=1;jettySize=auto;html=1;entryX=0;entryY=0.5;entryDx=0;entryDy=0;" edge="1" parent="1" source="Aqq_Bgm-5_LAsRGmrGGg-135" target="Aqq_Bgm-5_LAsRGmrGGg-137">
          <mxGeometry relative="1" as="geometry" />
        </mxCell>
        <mxCell id="Aqq_Bgm-5_LAsRGmrGGg-135" value="voter5: b&lt;div&gt;(t=18)&lt;/div&gt;" style="text;html=1;align=center;verticalAlign=middle;whiteSpace=wrap;rounded=0;fontColor=#000000;" vertex="1" parent="1">
          <mxGeometry x="90" y="510" width="80" height="30" as="geometry" />
        </mxCell>
        <mxCell id="Aqq_Bgm-5_LAsRGmrGGg-136" style="edgeStyle=orthogonalEdgeStyle;rounded=0;orthogonalLoop=1;jettySize=auto;html=1;" edge="1" parent="1" source="Aqq_Bgm-5_LAsRGmrGGg-137" target="Aqq_Bgm-5_LAsRGmrGGg-139">
          <mxGeometry relative="1" as="geometry" />
        </mxCell>
        <mxCell id="Aqq_Bgm-5_LAsRGmrGGg-137" value="b" style="text;html=1;align=center;verticalAlign=middle;whiteSpace=wrap;rounded=0;fontColor=#000000;" vertex="1" parent="1">
          <mxGeometry x="330" y="510" width="80" height="30" as="geometry" />
        </mxCell>
        <mxCell id="Aqq_Bgm-5_LAsRGmrGGg-138" style="edgeStyle=orthogonalEdgeStyle;rounded=0;orthogonalLoop=1;jettySize=auto;html=1;entryX=0;entryY=0.5;entryDx=0;entryDy=0;" edge="1" parent="1" source="Aqq_Bgm-5_LAsRGmrGGg-139" target="Aqq_Bgm-5_LAsRGmrGGg-140">
          <mxGeometry relative="1" as="geometry" />
        </mxCell>
        <mxCell id="Aqq_Bgm-5_LAsRGmrGGg-139" value="a : 3&lt;div&gt;b : 2&lt;/div&gt;&lt;div&gt;c : 1&lt;/div&gt;" style="text;html=1;align=center;verticalAlign=middle;whiteSpace=wrap;rounded=0;fontColor=#000000;strokeColor=default;" vertex="1" parent="1">
          <mxGeometry x="570" y="500" width="80" height="50" as="geometry" />
        </mxCell>
        <mxCell id="Aqq_Bgm-5_LAsRGmrGGg-140" value="b : 2" style="text;html=1;align=center;verticalAlign=middle;whiteSpace=wrap;rounded=0;fontColor=#000000;" vertex="1" parent="1">
          <mxGeometry x="850" y="510" width="80" height="30" as="geometry" />
        </mxCell>
        <mxCell id="Aqq_Bgm-5_LAsRGmrGGg-141" style="edgeStyle=orthogonalEdgeStyle;rounded=0;orthogonalLoop=1;jettySize=auto;html=1;entryX=0;entryY=0.5;entryDx=0;entryDy=0;" edge="1" parent="1" source="Aqq_Bgm-5_LAsRGmrGGg-142" target="Aqq_Bgm-5_LAsRGmrGGg-144">
          <mxGeometry relative="1" as="geometry" />
        </mxCell>
        <mxCell id="Aqq_Bgm-5_LAsRGmrGGg-142" value="voter6: c&lt;div&gt;(t=30)&lt;/div&gt;" style="text;html=1;align=center;verticalAlign=middle;whiteSpace=wrap;rounded=0;fontColor=#000000;" vertex="1" parent="1">
          <mxGeometry x="90" y="570" width="80" height="30" as="geometry" />
        </mxCell>
        <mxCell id="Aqq_Bgm-5_LAsRGmrGGg-143" style="edgeStyle=orthogonalEdgeStyle;rounded=0;orthogonalLoop=1;jettySize=auto;html=1;" edge="1" parent="1" source="Aqq_Bgm-5_LAsRGmrGGg-144" target="Aqq_Bgm-5_LAsRGmrGGg-146">
          <mxGeometry relative="1" as="geometry" />
        </mxCell>
        <mxCell id="Aqq_Bgm-5_LAsRGmrGGg-144" value="c" style="text;html=1;align=center;verticalAlign=middle;whiteSpace=wrap;rounded=0;fontColor=#000000;" vertex="1" parent="1">
          <mxGeometry x="330" y="570" width="80" height="30" as="geometry" />
        </mxCell>
        <mxCell id="Aqq_Bgm-5_LAsRGmrGGg-145" style="edgeStyle=orthogonalEdgeStyle;rounded=0;orthogonalLoop=1;jettySize=auto;html=1;entryX=0;entryY=0.5;entryDx=0;entryDy=0;" edge="1" parent="1" source="Aqq_Bgm-5_LAsRGmrGGg-146" target="Aqq_Bgm-5_LAsRGmrGGg-147">
          <mxGeometry relative="1" as="geometry" />
        </mxCell>
        <mxCell id="Aqq_Bgm-5_LAsRGmrGGg-146" value="a : 3&lt;div&gt;b : 2&lt;/div&gt;&lt;div&gt;c : 2&lt;/div&gt;" style="text;html=1;align=center;verticalAlign=middle;whiteSpace=wrap;rounded=0;fontColor=#000000;strokeColor=default;" vertex="1" parent="1">
          <mxGeometry x="570" y="560" width="80" height="50" as="geometry" />
        </mxCell>
        <mxCell id="Aqq_Bgm-5_LAsRGmrGGg-147" value="c : 2" style="text;html=1;align=center;verticalAlign=middle;whiteSpace=wrap;rounded=0;fontColor=#000000;" vertex="1" parent="1">
          <mxGeometry x="850" y="570" width="80" height="30" as="geometry" />
        </mxCell>
        <mxCell id="Aqq_Bgm-5_LAsRGmrGGg-148" style="edgeStyle=orthogonalEdgeStyle;rounded=0;orthogonalLoop=1;jettySize=auto;html=1;entryX=0;entryY=0.5;entryDx=0;entryDy=0;" edge="1" parent="1" source="Aqq_Bgm-5_LAsRGmrGGg-149" target="Aqq_Bgm-5_LAsRGmrGGg-151">
          <mxGeometry relative="1" as="geometry" />
        </mxCell>
        <mxCell id="Aqq_Bgm-5_LAsRGmrGGg-149" value="voter6: d&lt;div&gt;(t=40)&lt;/div&gt;" style="text;html=1;align=center;verticalAlign=middle;whiteSpace=wrap;rounded=0;fontColor=#000000;" vertex="1" parent="1">
          <mxGeometry x="90" y="635" width="80" height="30" as="geometry" />
        </mxCell>
        <mxCell id="Aqq_Bgm-5_LAsRGmrGGg-150" style="edgeStyle=orthogonalEdgeStyle;rounded=0;orthogonalLoop=1;jettySize=auto;html=1;" edge="1" parent="1" source="Aqq_Bgm-5_LAsRGmrGGg-151" target="Aqq_Bgm-5_LAsRGmrGGg-153">
          <mxGeometry relative="1" as="geometry" />
        </mxCell>
        <mxCell id="Aqq_Bgm-5_LAsRGmrGGg-151" value="d" style="text;html=1;align=center;verticalAlign=middle;whiteSpace=wrap;rounded=0;fontColor=#000000;" vertex="1" parent="1">
          <mxGeometry x="330" y="635" width="80" height="30" as="geometry" />
        </mxCell>
        <mxCell id="Aqq_Bgm-5_LAsRGmrGGg-152" style="edgeStyle=orthogonalEdgeStyle;rounded=0;orthogonalLoop=1;jettySize=auto;html=1;entryX=0;entryY=0.5;entryDx=0;entryDy=0;" edge="1" parent="1" source="Aqq_Bgm-5_LAsRGmrGGg-153" target="Aqq_Bgm-5_LAsRGmrGGg-154">
          <mxGeometry relative="1" as="geometry" />
        </mxCell>
        <mxCell id="Aqq_Bgm-5_LAsRGmrGGg-153" value="a : 3&lt;div&gt;b : 2&lt;/div&gt;&lt;div&gt;c : 2&lt;/div&gt;&lt;div&gt;d : 1&lt;/div&gt;" style="text;html=1;align=center;verticalAlign=middle;whiteSpace=wrap;rounded=0;fontColor=#000000;strokeColor=default;" vertex="1" parent="1">
          <mxGeometry x="570" y="620" width="80" height="60" as="geometry" />
        </mxCell>
        <mxCell id="Aqq_Bgm-5_LAsRGmrGGg-154" value="d : 1" style="text;html=1;align=center;verticalAlign=middle;whiteSpace=wrap;rounded=0;fontColor=#000000;" vertex="1" parent="1">
          <mxGeometry x="850" y="635" width="80" height="30" as="geometry" />
        </mxCell>
        <mxCell id="Aqq_Bgm-5_LAsRGmrGGg-155" style="edgeStyle=orthogonalEdgeStyle;rounded=0;orthogonalLoop=1;jettySize=auto;html=1;entryX=0;entryY=0.5;entryDx=0;entryDy=0;" edge="1" parent="1" source="Aqq_Bgm-5_LAsRGmrGGg-156" target="Aqq_Bgm-5_LAsRGmrGGg-158">
          <mxGeometry relative="1" as="geometry" />
        </mxCell>
        <mxCell id="Aqq_Bgm-5_LAsRGmrGGg-156" value="voter7: b&lt;div&gt;(t=40)&lt;/div&gt;" style="text;html=1;align=center;verticalAlign=middle;whiteSpace=wrap;rounded=0;fontColor=#000000;" vertex="1" parent="1">
          <mxGeometry x="90" y="705" width="80" height="30" as="geometry" />
        </mxCell>
        <mxCell id="Aqq_Bgm-5_LAsRGmrGGg-157" style="edgeStyle=orthogonalEdgeStyle;rounded=0;orthogonalLoop=1;jettySize=auto;html=1;" edge="1" parent="1" source="Aqq_Bgm-5_LAsRGmrGGg-158" target="Aqq_Bgm-5_LAsRGmrGGg-160">
          <mxGeometry relative="1" as="geometry" />
        </mxCell>
        <mxCell id="Aqq_Bgm-5_LAsRGmrGGg-158" value="b" style="text;html=1;align=center;verticalAlign=middle;whiteSpace=wrap;rounded=0;fontColor=#000000;" vertex="1" parent="1">
          <mxGeometry x="330" y="705" width="80" height="30" as="geometry" />
        </mxCell>
        <mxCell id="Aqq_Bgm-5_LAsRGmrGGg-159" style="edgeStyle=orthogonalEdgeStyle;rounded=0;orthogonalLoop=1;jettySize=auto;html=1;entryX=0;entryY=0.5;entryDx=0;entryDy=0;" edge="1" parent="1" source="Aqq_Bgm-5_LAsRGmrGGg-160" target="Aqq_Bgm-5_LAsRGmrGGg-161">
          <mxGeometry relative="1" as="geometry" />
        </mxCell>
        <mxCell id="Aqq_Bgm-5_LAsRGmrGGg-160" value="a : 3&lt;div&gt;b : 3&lt;/div&gt;&lt;div&gt;c : 2&lt;/div&gt;&lt;div&gt;d : 1&lt;/div&gt;" style="text;html=1;align=center;verticalAlign=middle;whiteSpace=wrap;rounded=0;fontColor=#000000;strokeColor=default;" vertex="1" parent="1">
          <mxGeometry x="570" y="690" width="80" height="60" as="geometry" />
        </mxCell>
        <mxCell id="Aqq_Bgm-5_LAsRGmrGGg-161" value="b : 3" style="text;html=1;align=center;verticalAlign=middle;whiteSpace=wrap;rounded=0;fontColor=#000000;" vertex="1" parent="1">
          <mxGeometry x="850" y="705" width="80" height="30" as="geometry" />
        </mxCell>
        <mxCell id="Aqq_Bgm-5_LAsRGmrGGg-162" style="edgeStyle=orthogonalEdgeStyle;rounded=0;orthogonalLoop=1;jettySize=auto;html=1;entryX=0;entryY=0.5;entryDx=0;entryDy=0;" edge="1" parent="1" source="Aqq_Bgm-5_LAsRGmrGGg-163" target="Aqq_Bgm-5_LAsRGmrGGg-164">
          <mxGeometry relative="1" as="geometry" />
        </mxCell>
        <mxCell id="Aqq_Bgm-5_LAsRGmrGGg-163" value="voter7: null&lt;div&gt;(t=42)&lt;/div&gt;" style="text;html=1;align=center;verticalAlign=middle;whiteSpace=wrap;rounded=0;fontColor=#000000;" vertex="1" parent="1">
          <mxGeometry x="90" y="760" width="80" height="30" as="geometry" />
        </mxCell>
        <mxCell id="Aqq_Bgm-5_LAsRGmrGGg-164" value="null" style="text;html=1;align=center;verticalAlign=middle;whiteSpace=wrap;rounded=0;fontColor=#000000;" vertex="1" parent="1">
          <mxGeometry x="330" y="760" width="80" height="30" as="geometry" />
        </mxCell>
        <mxCell id="Aqq_Bgm-5_LAsRGmrGGg-165" style="edgeStyle=orthogonalEdgeStyle;rounded=0;orthogonalLoop=1;jettySize=auto;html=1;entryX=0;entryY=0.5;entryDx=0;entryDy=0;" edge="1" parent="1" source="Aqq_Bgm-5_LAsRGmrGGg-166" target="Aqq_Bgm-5_LAsRGmrGGg-168">
          <mxGeometry relative="1" as="geometry" />
        </mxCell>
        <mxCell id="Aqq_Bgm-5_LAsRGmrGGg-166" value="null: d&lt;div&gt;(t=45)&lt;/div&gt;" style="text;html=1;align=center;verticalAlign=middle;whiteSpace=wrap;rounded=0;fontColor=#000000;" vertex="1" parent="1">
          <mxGeometry x="90" y="815" width="80" height="30" as="geometry" />
        </mxCell>
        <mxCell id="Aqq_Bgm-5_LAsRGmrGGg-167" style="edgeStyle=orthogonalEdgeStyle;rounded=0;orthogonalLoop=1;jettySize=auto;html=1;entryX=0;entryY=0.5;entryDx=0;entryDy=0;" edge="1" parent="1" source="Aqq_Bgm-5_LAsRGmrGGg-168" target="Aqq_Bgm-5_LAsRGmrGGg-170">
          <mxGeometry relative="1" as="geometry" />
        </mxCell>
        <mxCell id="Aqq_Bgm-5_LAsRGmrGGg-168" value="d" style="text;html=1;align=center;verticalAlign=middle;whiteSpace=wrap;rounded=0;fontColor=#000000;" vertex="1" parent="1">
          <mxGeometry x="330" y="815" width="80" height="30" as="geometry" />
        </mxCell>
        <mxCell id="Aqq_Bgm-5_LAsRGmrGGg-169" style="edgeStyle=orthogonalEdgeStyle;rounded=0;orthogonalLoop=1;jettySize=auto;html=1;entryX=0;entryY=0.5;entryDx=0;entryDy=0;" edge="1" parent="1" source="Aqq_Bgm-5_LAsRGmrGGg-170" target="Aqq_Bgm-5_LAsRGmrGGg-171">
          <mxGeometry relative="1" as="geometry" />
        </mxCell>
        <mxCell id="Aqq_Bgm-5_LAsRGmrGGg-170" value="a : 3&lt;div&gt;b : 3&lt;/div&gt;&lt;div&gt;c : 2&lt;/div&gt;&lt;div&gt;d : 2&lt;/div&gt;" style="text;html=1;align=center;verticalAlign=middle;whiteSpace=wrap;rounded=0;fontColor=#000000;strokeColor=default;" vertex="1" parent="1">
          <mxGeometry x="570" y="800" width="80" height="60" as="geometry" />
        </mxCell>
        <mxCell id="Aqq_Bgm-5_LAsRGmrGGg-171" value="d : 2" style="text;html=1;align=center;verticalAlign=middle;whiteSpace=wrap;rounded=0;fontColor=#000000;" vertex="1" parent="1">
          <mxGeometry x="850" y="815" width="80" height="30" as="geometry" />
        </mxCell>
        <mxCell id="Aqq_Bgm-5_LAsRGmrGGg-172" style="edgeStyle=orthogonalEdgeStyle;rounded=0;orthogonalLoop=1;jettySize=auto;html=1;entryX=0;entryY=0.5;entryDx=0;entryDy=0;" edge="1" parent="1" source="Aqq_Bgm-5_LAsRGmrGGg-173" target="Aqq_Bgm-5_LAsRGmrGGg-174">
          <mxGeometry relative="1" as="geometry" />
        </mxCell>
        <mxCell id="Aqq_Bgm-5_LAsRGmrGGg-173" value="null: null&lt;div&gt;(t=48)&lt;/div&gt;" style="text;html=1;align=center;verticalAlign=middle;whiteSpace=wrap;rounded=0;fontColor=#000000;" vertex="1" parent="1">
          <mxGeometry x="90" y="875" width="80" height="30" as="geometry" />
        </mxCell>
        <mxCell id="Aqq_Bgm-5_LAsRGmrGGg-174" value="null" style="text;html=1;align=center;verticalAlign=middle;whiteSpace=wrap;rounded=0;fontColor=#000000;" vertex="1" parent="1">
          <mxGeometry x="330" y="875" width="80" height="30" as="geometry" />
        </mxCell>
        <mxCell id="Aqq_Bgm-5_LAsRGmrGGg-175" style="edgeStyle=orthogonalEdgeStyle;rounded=0;orthogonalLoop=1;jettySize=auto;html=1;entryX=0;entryY=0.5;entryDx=0;entryDy=0;" edge="1" parent="1" source="Aqq_Bgm-5_LAsRGmrGGg-176" target="Aqq_Bgm-5_LAsRGmrGGg-94">
          <mxGeometry relative="1" as="geometry" />
        </mxCell>
        <mxCell id="Aqq_Bgm-5_LAsRGmrGGg-176" value="&lt;div&gt;&lt;font&gt;input2-topic&lt;/font&gt;&lt;/div&gt;" style="rounded=0;whiteSpace=wrap;html=1;strokeColor=#000000;fontColor=#000000;" vertex="1" parent="1">
          <mxGeometry x="90" y="195" width="120" height="40" as="geometry" />
        </mxCell>
        <mxCell id="Aqq_Bgm-5_LAsRGmrGGg-177" style="edgeStyle=orthogonalEdgeStyle;rounded=0;orthogonalLoop=1;jettySize=auto;html=1;entryX=0;entryY=0.5;entryDx=0;entryDy=0;" edge="1" parent="1" source="Aqq_Bgm-5_LAsRGmrGGg-178" target="Aqq_Bgm-5_LAsRGmrGGg-180">
          <mxGeometry relative="1" as="geometry" />
        </mxCell>
        <mxCell id="Aqq_Bgm-5_LAsRGmrGGg-178" value="&lt;font&gt;groupBy&lt;/font&gt;" style="ellipse;whiteSpace=wrap;html=1;strokeColor=#000000;fontColor=#000000;" vertex="1" parent="1">
          <mxGeometry x="330" y="140" width="80" height="50" as="geometry" />
        </mxCell>
        <mxCell id="Aqq_Bgm-5_LAsRGmrGGg-179" style="edgeStyle=orthogonalEdgeStyle;rounded=0;orthogonalLoop=1;jettySize=auto;html=1;entryX=0;entryY=0.5;entryDx=0;entryDy=0;" edge="1" parent="1" source="Aqq_Bgm-5_LAsRGmrGGg-180" target="Aqq_Bgm-5_LAsRGmrGGg-96">
          <mxGeometry relative="1" as="geometry" />
        </mxCell>
        <mxCell id="Aqq_Bgm-5_LAsRGmrGGg-180" value="&lt;font&gt;cogroup&lt;/font&gt;" style="ellipse;whiteSpace=wrap;html=1;strokeColor=#000000;fontColor=#000000;" vertex="1" parent="1">
          <mxGeometry x="530" y="165" width="80" height="50" as="geometry" />
        </mxCell>
      </root>
    </mxGraphModel>
  </diagram>
</mxfile>
